<?xml version="1.0" encoding="UTF-8"?>
<svg version="1.1" viewBox="0 0 33 47" xmlns="http://www.w3.org/2000/svg">
<title>Imported Layers</title>
<desc>Created with Sketch.</desc>
<g fill="none" fill-rule="evenodd">
<g transform="translate(-581 -1229)">
<g transform="translate(582.75 1230.8)">
<path d="m29.299 28.47v-5.51c0-1.2075-0.41445-2.3175-1.1074-3.1908-0.92175-1.1638-2.3375-1.9094-3.9257-1.9094h-19.232c-1.7142 0-3.2294 0.86824-4.1379 2.1949-0.56366 0.82457-0.89522 1.8255-0.89522 2.9053v6.2809c0 0.19481 0.013263 0.38794 0.034814 0.5777 0.3614 7.8763 6.7589 14.154 14.622 14.154 8.0968 0 14.658-6.647 14.658-14.849 0-0.22672-0.0066313-0.44168-0.016578-0.65328zm-25.577-13.853c-1.25 0-3.7218 2.5627-3.7218 4.9189v6.2809m7.2728-11.379h14.753-14.753zm22.026 10.609v-5.51c0-2.3562-2.6608-4.9189-3.7218-4.9189v0.42488c0 0.99419-0.79575 1.3351-1.7755 1.3351-0.98143 0-1.7755-0.34091-1.7755-1.3351v-0.60457m-18.304 0.17969v0.42488c0 0.99419 0.79575 1.3351 1.7755 1.3351 0.98143 0 1.7755-0.34091 1.7755-1.3351v-0.60457m-3.551 0.17969v-3.5485c0-6.1028 4.9022-11.069 10.927-11.069 6.0262 0 10.928 4.9659 10.928 11.069v3.5485m-3.551-0.17969v-3.3688c0-4.1195-3.309-7.4715-7.3773-7.4715-4.0666 0-7.3756 3.352-7.3756 7.4715v3.3688h14.753z" stroke="#13C1C9" stroke-width="2"/>
<path d="m16.534 29.315h-3.3129l-0.3224 5.863h4.1041l-0.46879-5.863" fill="#13C1C9"/>
<path d="m17.589 29.022c0 1.457-1.181 2.6384-2.6375 2.6384-1.4582 0-2.6392-1.1814-2.6392-2.6384 0-1.457 1.181-2.6384 2.6392-2.6384 1.4566 0 2.6375 1.1814 2.6375 2.6384" fill="#13C1C9"/>
</g>
</g>
</g>
</svg>
