<?xml version="1.0" encoding="UTF-8"?>
<svg version="1.1" viewBox="0 0 36 46" xmlns="http://www.w3.org/2000/svg">
<title>Imported Layers</title>
<desc>Created with Sketch.</desc>
<g fill="none" fill-rule="evenodd">
<g transform="translate(-951 -1229)" stroke="#13C1C9" stroke-width="2">
<g transform="translate(952 1230.6)">
<path d="m28.98 15.084h-8.2778c-0.84691 0-1.5401-0.69323-1.5401-1.5401v-8.5647"/>
<path d="m27.44 43.057h-25.504c-0.8452 0-1.5384-0.69323-1.5384-1.5384v-35c0-0.84691 0.69323-1.5401 1.5384-1.5401h17.227l9.818 10.107v26.433c0 0.8452-0.69323 1.5384-1.5401 1.5384v0z" stroke-linecap="round" stroke-linejoin="round"/>
<path d="m30.872 38.094h1.5333c0.84691 0 1.5384-0.69323 1.5384-1.5401v-34.998c0-0.84691-0.69153-1.5401-1.5384-1.5401h-25.504c-0.85032 0-1.5401 0.68982-1.5401 1.5401v1.4992m-1.115 12.029h11.356m-11.356 5.4776h20.917m-20.917 5.4776h20.917m-20.917 5.4776h10.443m5.201 4.0723-0.029027 5.0473 1.7314-1.7502 1.6921 1.7741 0.030734-5.1327" stroke-linejoin="round"/>
<path d="m20.994 29.556c0.32613 0.15879 0.86056 0.15879 1.1867 0 0.32613-0.1605 0.73421-0.02732 0.90325 0.29368 0.17075 0.321 0.60274 0.63518 0.96131 0.69836 0.35857 0.061469 0.60957 0.40809 0.55834 0.76836s0.1144 0.86739 0.36711 1.1286c0.25271 0.26295 0.25271 0.68982 0 0.95106s-0.41833 0.77007-0.36711 1.1286c0.051224 0.36028-0.19977 0.70689-0.55834 0.77007-0.35857 0.061469-0.79056 0.37564-0.96131 0.69665-0.16904 0.32271-0.57712 0.45419-0.90325 0.29368-0.32613-0.15879-0.86056-0.15879-1.1867 0-0.32783 0.1605-0.73421 0.029027-0.90496-0.29368-0.16904-0.321-0.60274-0.63518-0.9596-0.69665-0.35857-0.063176-0.60957-0.40979-0.56005-0.77007 0.051224-0.35857-0.11269-0.86739-0.3654-1.1286-0.25271-0.26124-0.25271-0.68811 0-0.95106 0.25271-0.26124 0.41662-0.76836 0.3654-1.1286-0.049517-0.36028 0.20148-0.70689 0.56005-0.76836 0.35686-0.063176 0.79056-0.37735 0.9596-0.69836 0.17075-0.321 0.57712-0.45419 0.90496-0.29368z" fill="#13C1C9"/>
</g>
</g>
</g>
</svg>
