<?xml version="1.0" encoding="UTF-8"?>
<svg version="1.1" viewBox="0 0 37 45" xmlns="http://www.w3.org/2000/svg">
<title>Imported Layers</title>
<desc>Created with Sketch.</desc>
<g fill="none" fill-rule="evenodd">
<g transform="translate(-183 -1233)">
<g transform="translate(184.5 1234.8)">
<path d="m17.201 4.544c2.2814 0.8978 10.207 4.0289 13.07 5.1585 0.0017166 1.1896 0 3.1363-0.0017166 4.925l-0.0034333 2.3432v1.993c0 9.7899-4.2744 15.81-13.064 18.394-8.8029-2.5835-13.084-8.6054-13.084-18.394l-0.0034332-4.8014c-0.0017166-1.6085-0.0017166-3.3543-0.0017166-4.4581 2.8994-1.1433 10.801-4.2589 13.088-5.1602m-14.229 4.4681c-0.0099027 0.0082522-0.0033009 4.5965-0.0016504 8.1186 0 0.69154 0.0016504 1.3451 0.0016504 1.9096 0 6.9451 1.9954 16.029 14.225 19.399 12.225-3.3702 14.215-12.6 14.215-19.399 0-0.5661 0-1.2213 0.0016504-1.9145 0.0016505-3.5204 0.0082523-8.1054-0.0016504-8.1136 0.0016504 0-13.865-5.4762-14.214-5.6082l-14.227 5.6082z" fill="#13C1C9"/>
<path d="m0.12806 16.363c0 0.81862 0.0016504 1.596 0.0016504 2.2661 0 8.244 2.3932 19.028 17.067 23.027h0.016504c14.651-3.999 17.041-14.956 17.041-23.027 0-0.67173 0-1.4507 0.0016504-2.2727 0.0033009-4.1773 0.0099027-9.6221-0.0016504-9.6304 0.031358 0.011553-16.637-6.5011-17.054-6.6596 0 0-17.102 6.6711-17.071 6.6596-0.011553 0.0082522-0.0033009 5.4547-0.0016504 9.637m17.064-11.66v32.382m-13.314-16.351h26.693" stroke="#13C1C9" stroke-linecap="round" stroke-width="2"/>
</g>
</g>
</g>
</svg>
