<svg xmlns="http://www.w3.org/2000/svg" xmlns:xlink="http://www.w3.org/1999/xlink" xmlns:sketch="http://www.bohemiancoding.com/sketch/ns" width="832px" height="712px" viewBox="0 0 832 712" version="1.1">
    <!-- Generator: Sketch 3.4 (15575) - http://www.bohemiancoding.com/sketch -->
    <title>sprite-index</title>
    <desc>Created with Sketch.</desc>
    <defs>
        <path id="path-1" d="M0,0 L73.0512821,0 L73.0512821,73.0512821 L0,73.0512821 L0,0 Z"/>
        <linearGradient x1="0.05801751%" y1="50.0255236%" x2="100.072133%" y2="50.0255236%" id="linearGradient-3">
            <stop stop-color="#20A5A7" offset="0%"/>
            <stop stop-color="#00ACB8" offset="50.04%"/>
            <stop stop-color="#00ACB8" offset="100%"/>
        </linearGradient>
        <linearGradient x1="0.0253659248%" y1="49.8057087%" x2="100.04907%" y2="49.8057087%" id="linearGradient-4">
            <stop stop-color="#00ACB8" offset="0%"/>
            <stop stop-color="#203951" offset="100%"/>
        </linearGradient>
        <linearGradient x1="-0.00406698759%" y1="49.8057087%" x2="99.9806128%" y2="49.8057087%" id="linearGradient-5">
            <stop stop-color="#203951" offset="0%"/>
            <stop stop-color="#00ACB8" offset="100%"/>
        </linearGradient>
    </defs>
    <g id="Page-1" stroke="none" stroke-width="1" fill="none" fill-rule="evenodd" sketch:type="MSPage">
        <g id="sprite-index" sketch:type="MSLayerGroup" transform="translate(2.000000, 0.000000)">
            <g id="trade_icon" transform="translate(146.000000, 480.000000)" sketch:type="MSShapeGroup">
                <g id="Group" transform="translate(102.000000, 17.000000)">
                    <g transform="translate(0.000000, 10.000000)" id="Shape">
                        <path d="M8.7,47.2 L9.7,47.2 C13.3,47.2 16.2,44.3 16.2,40.7 L16.2,8.5 C16.2,4.9 13.3,2 9.7,2 L8.7,2 C5.1,2 2.2,4.9 2.2,8.5 L2.2,40.8 C2.2,44.3 5.2,47.2 8.7,47.2 L8.7,47.2 Z" fill="#FFFFFF"/>
                        <path d="M9.7,48.7 L8.7,48.7 C4.3,48.7 0.7,45.1 0.7,40.7 L0.7,8.5 C0.7,4.1 4.3,0.5 8.7,0.5 L9.7,0.5 C14.1,0.5 17.7,4.1 17.7,8.5 L17.7,40.8 C17.7,45.1 14.1,48.7 9.7,48.7 L9.7,48.7 Z M8.7,3.5 C6,3.5 3.7,5.7 3.7,8.5 L3.7,40.8 C3.7,43.5 5.9,45.8 8.7,45.8 L9.7,45.8 C12.4,45.8 14.7,43.6 14.7,40.8 L14.7,8.5 C14.7,5.8 12.5,3.5 9.7,3.5 L8.7,3.5 L8.7,3.5 Z" fill="#2E4D68"/>
                    </g>
                    <path d="M9.2,13.5 C8.4,13.5 7.7,12.8 7.7,12 L7.7,2 C7.7,1.2 8.4,0.5 9.2,0.5 C10,0.5 10.7,1.2 10.7,2 L10.7,12 C10.7,12.8 10,13.5 9.2,13.5 L9.2,13.5 Z" id="Shape" fill="#2E4D68"/>
                    <path d="M9.2,68.7 C8.4,68.7 7.7,68 7.7,67.2 L7.7,57.2 C7.7,56.4 8.4,55.7 9.2,55.7 C10,55.7 10.7,56.4 10.7,57.2 L10.7,67.2 C10.7,68 10,68.7 9.2,68.7 L9.2,68.7 Z" id="Shape" fill="#2E4D68"/>
                </g>
                <g id="Group" transform="translate(82.000000, 7.000000)" fill="#2E4D68">
                    <path d="M9.2,88.1 L8.2,88.1 C3.8,88.1 0.2,84.5 0.2,80.1 L0.2,24.1 C0.2,19.7 3.8,16.1 8.2,16.1 L9.2,16.1 C13.6,16.1 17.2,19.7 17.2,24.1 L17.2,80.1 C17.2,84.5 13.6,88.1 9.2,88.1 L9.2,88.1 Z M8.2,19.2 C5.5,19.2 3.2,21.4 3.2,24.2 L3.2,80.2 C3.2,82.9 5.4,85.2 8.2,85.2 L9.2,85.2 C11.9,85.2 14.2,83 14.2,80.2 L14.2,24.2 C14.2,21.5 12,19.2 9.2,19.2 L8.2,19.2 L8.2,19.2 Z" id="Shape"/>
                    <path d="M8.7,19.2 C7.9,19.2 7.2,18.5 7.2,17.7 L7.2,2.3 C7.2,1.5 7.9,0.8 8.7,0.8 C9.5,0.8 10.2,1.5 10.2,2.3 L10.2,17.7 C10.2,18.5 9.5,19.2 8.7,19.2 L8.7,19.2 Z" id="Shape"/>
                    <path d="M8.7,92.7 C7.9,92.7 7.2,92 7.2,91.2 L7.2,86.6 C7.2,85.8 7.9,85.1 8.7,85.1 C9.5,85.1 10.2,85.8 10.2,86.6 L10.2,91.2 C10.2,92 9.5,92.7 8.7,92.7 L8.7,92.7 Z" id="Shape"/>
                </g>
                <g id="Group" transform="translate(61.000000, 2.000000)">
                    <g transform="translate(0.000000, 8.000000)" id="Shape">
                        <path d="M8.7,66.3 L9.7,66.3 C13.3,66.3 16.2,63.4 16.2,59.8 L16.2,8.2 C16.2,4.6 13.3,1.7 9.7,1.7 L8.7,1.7 C5.1,1.7 2.2,4.6 2.2,8.2 L2.2,59.9 C2.2,63.4 5.1,66.3 8.7,66.3 L8.7,66.3 Z" fill="#FFFFFF"/>
                        <path d="M9.7,67.8 L8.7,67.8 C4.3,67.8 0.7,64.2 0.7,59.8 L0.7,8.2 C0.7,3.8 4.3,0.2 8.7,0.2 L9.7,0.2 C14.1,0.2 17.7,3.8 17.7,8.2 L17.7,59.9 C17.7,64.3 14.1,67.8 9.7,67.8 L9.7,67.8 Z M8.7,3.3 C6,3.3 3.7,5.5 3.7,8.3 L3.7,60 C3.7,62.7 5.9,65 8.7,65 L9.7,65 C12.4,65 14.7,62.8 14.7,60 L14.7,8.2 C14.7,5.5 12.5,3.2 9.7,3.2 L8.7,3.2 L8.7,3.3 Z" fill="#2E4D68"/>
                    </g>
                    <g transform="translate(7.000000, 0.000000)" id="Shape">
                        <path d="M2.2,9.8 L2.2,1.9" fill="#FFFFFF"/>
                        <path d="M2.2,11.3 C1.4,11.3 0.7,10.6 0.7,9.8 L0.7,1.9 C0.7,1.1 1.4,0.4 2.2,0.4 C3,0.4 3.7,1.1 3.7,1.9 L3.7,9.8 C3.7,10.6 3,11.3 2.2,11.3 L2.2,11.3 Z" fill="#2E4D68"/>
                    </g>
                    <g transform="translate(7.000000, 72.000000)" id="Shape">
                        <path d="M2.2,2.3 L2.2,29.6" fill="#FFFFFF"/>
                        <path d="M2.2,31.1 C1.4,31.1 0.7,30.4 0.7,29.6 L0.7,2.3 C0.7,1.5 1.4,0.8 2.2,0.8 C3,0.8 3.7,1.5 3.7,2.3 L3.7,29.6 C3.7,30.4 3,31.1 2.2,31.1 L2.2,31.1 Z" fill="#2E4D68"/>
                    </g>
                </g>
                <g id="Group" transform="translate(41.000000, 0.000000)" fill="#2E4D68">
                    <path d="M9.2,98.3 L8.2,98.3 C3.8,98.3 0.2,94.7 0.2,90.3 L0.2,47.3 C0.2,42.9 3.8,39.3 8.2,39.3 L9.2,39.3 C13.6,39.3 17.2,42.9 17.2,47.3 L17.2,90.3 C17.1,94.7 13.6,98.3 9.2,98.3 L9.2,98.3 Z M8.2,42.4 C5.5,42.4 3.2,44.6 3.2,47.4 L3.2,90.4 C3.2,93.1 5.4,95.4 8.2,95.4 L9.2,95.4 C11.9,95.4 14.2,93.2 14.2,90.4 L14.2,47.4 C14.2,44.7 12,42.4 9.2,42.4 L8.2,42.4 L8.2,42.4 Z" id="Shape"/>
                    <path d="M8.7,42.4 C7.9,42.4 7.2,41.7 7.2,40.9 L7.2,1.7 C7.2,0.9 7.9,0.2 8.7,0.2 C9.5,0.2 10.2,0.9 10.2,1.7 L10.2,40.8 C10.2,41.7 9.5,42.4 8.7,42.4 L8.7,42.4 Z" id="Shape"/>
                    <path d="M8.7,107.2 C7.9,107.2 7.2,106.5 7.2,105.7 L7.2,96.8 C7.2,96 7.9,95.3 8.7,95.3 C9.5,95.3 10.2,96 10.2,96.8 L10.2,105.7 C10.2,106.6 9.5,107.2 8.7,107.2 L8.7,107.2 Z" id="Shape"/>
                </g>
                <g id="Group" transform="translate(20.000000, 11.000000)">
                    <g transform="translate(0.000000, 10.000000)" id="Shape">
                        <path d="M8.7,56.4 L9.7,56.4 C13.3,56.4 16.2,53.5 16.2,49.9 L16.2,8 C16.2,4.4 13.3,1.5 9.7,1.5 L8.7,1.5 C5.1,1.5 2.2,4.4 2.2,8 L2.2,50 C2.2,53.5 5.1,56.4 8.7,56.4 L8.7,56.4 Z" fill="#FFFFFF"/>
                        <path d="M9.7,57.9 L8.7,57.9 C4.3,57.9 0.7,54.3 0.7,49.9 L0.7,8 C0.7,3.6 4.3,0 8.7,0 L9.7,0 C14.1,0 17.7,3.6 17.7,8 L17.7,50 C17.6,54.3 14.1,57.9 9.7,57.9 L9.7,57.9 Z M8.7,3 C6,3 3.7,5.2 3.7,8 L3.7,50 C3.7,52.7 5.9,55 8.7,55 L9.7,55 C12.4,55 14.7,52.8 14.7,50 L14.7,8 C14.7,5.3 12.5,3 9.7,3 L8.7,3 L8.7,3 Z" fill="#2E4D68"/>
                    </g>
                    <g transform="translate(7.000000, 0.000000)" id="Shape">
                        <path d="M2.2,11.5 L2.2,1.5" fill="#FFFFFF"/>
                        <path d="M2.2,13 C1.4,13 0.7,12.3 0.7,11.5 L0.7,1.5 C0.7,0.7 1.4,0 2.2,0 C3,0 3.7,0.7 3.7,1.5 L3.7,11.5 C3.7,12.4 3,13 2.2,13 L2.2,13 Z" fill="#2E4D68"/>
                    </g>
                    <g transform="translate(7.000000, 64.000000)" id="Shape">
                        <path d="M2.2,2.4 L2.2,23.2" fill="#FFFFFF"/>
                        <path d="M2.2,24.7 C1.4,24.7 0.7,24 0.7,23.2 L0.7,2.4 C0.7,1.6 1.4,0.9 2.2,0.9 C3,0.9 3.7,1.6 3.7,2.4 L3.7,23.2 C3.7,24 3,24.7 2.2,24.7 L2.2,24.7 Z" fill="#2E4D68"/>
                    </g>
                </g>
                <g id="Group" transform="translate(0.000000, 17.000000)" fill="#2E4D68">
                    <path d="M9.2,58.7 L8.2,58.7 C3.8,58.7 0.2,55.1 0.2,50.7 L0.2,18.5 C0.2,14.1 3.8,10.5 8.2,10.5 L9.2,10.5 C13.6,10.5 17.2,14.1 17.2,18.5 L17.2,50.8 C17.1,55.1 13.6,58.7 9.2,58.7 L9.2,58.7 Z M8.2,13.5 C5.5,13.5 3.2,15.7 3.2,18.5 L3.2,50.8 C3.2,53.5 5.4,55.8 8.2,55.8 L9.2,55.8 C11.9,55.8 14.2,53.6 14.2,50.8 L14.2,18.5 C14.2,15.8 12,13.5 9.2,13.5 L8.2,13.5 L8.2,13.5 Z" id="Shape"/>
                    <path d="M8.7,13.5 C7.9,13.5 7.2,12.8 7.2,12 L7.2,2 C7.2,1.2 7.9,0.5 8.7,0.5 C9.5,0.5 10.2,1.2 10.2,2 L10.2,12 C10.2,12.8 9.5,13.5 8.7,13.5 L8.7,13.5 Z" id="Shape"/>
                    <path d="M8.7,67.6 C7.9,67.6 7.2,66.9 7.2,66.1 L7.2,57.2 C7.2,56.4 7.9,55.7 8.7,55.7 C9.5,55.7 10.2,56.4 10.2,57.2 L10.2,66.1 C10.2,66.9 9.5,67.6 8.7,67.6 L8.7,67.6 Z" id="Shape"/>
                </g>
            </g>
            <g id="security" transform="translate(107.000000, 379.000000)" stroke-width="4" stroke="#FFFFFF" sketch:type="MSShapeGroup">
                <g id="Page-1">
                    <g>
                        <g>
                            <g id="security">
                                <path d="M0,28.1243097 C0,29.564651 0.00164366317,30.9341558 0.00164366317,32.1131893 C0.00164366317,46.617347 4.40008632,65.5920723 31.3594498,72.6300676 L31.3890357,72.6300676 C58.3089511,65.5920723 62.6991754,46.3119631 62.6991754,32.1131893 C62.6991754,30.9310076 62.6991754,29.5599285 62.7008191,28.1148649" id="Stroke-3"/>
                                <path d="M62.6900526,28.1056039 C62.6966253,20.8974557 62.7114133,11.5052541 62.6884095,11.4882756 C62.7442761,11.5098846 32.1309558,0.271656119 31.3652532,0 C31.3652532,0 -0.0466325703,11.5098846 0.012520429,11.4882756 C-0.0104835152,11.5052541 0.00430473464,20.9020863 0.00923415125,28.1148649" id="Stroke-5"/>
                                <path d="M30.483871,0.63655667 L30.483871,69.802423" id="Stroke-7"/>
                                <path d="M0.510977242,35.4861111 L62.2224652,35.4861111" id="Stroke-9"/>
                            </g>
                        </g>
                    </g>
                </g>
            </g>
            <g id="reporting" transform="translate(0.000000, 381.000000)" stroke-width="4" stroke="#FFFFFF" sketch:type="MSShapeGroup">
                <g id="Page-1">
                    <g>
                        <g>
                            <g id="reporting">
                                <path d="M66.2385567,21.7014654 C61.2451633,9.00602638 48.846411,0 34.3055177,0 C27.2012434,0 20.6004215,2.14725125 15.124964,5.82358089 L34.3055177,34.1009011 L0.424479574,28.7172369 C0.14478373,30.4703619 0,32.2676424 0,34.1009011 C0,52.9339135 15.3585923,68.2001668 34.3055177,68.2001668 C48.2936005,68.2001668 60.3057142,59.8662808 65.6462595,47.9329277" id="Stroke-1"/>
                                <path d="M52.5702831,29 L87.2666698,29" id="Stroke-3"/>
                                <path d="M52.5702831,34 L87.2666698,34" id="Stroke-5"/>
                                <path d="M52.5702831,40 L87.2666698,40" id="Stroke-7"/>
                            </g>
                        </g>
                    </g>
                </g>
            </g>
            <g id="payment" transform="translate(195.000000, 383.000000)" stroke-width="4" stroke="#FFFFFF" sketch:type="MSShapeGroup">
                <g id="Patment">
                    <g id="Page-1">
                        <g>
                            <g id="Patment">
                                <path d="M30,33.0445678 C26.9757091,31.1266667 23.39482,30 19.5436753,30 C8.75113947,30 0,38.7308641 0,49.501605 C0,60.2707408 8.75113947,69 19.5436753,69 C23.39482,69 26.9757091,67.8749382 30,65.9586421" id="Stroke-1"/>
                                <path d="M49.5000001,30 C38.7308641,30 30,38.7308641 30,49.5000001 C30,60.2707408 38.7308641,69 49.5000001,69 C60.2691359,69 69,60.2707408 69,49.5000001 C69,38.7308641 60.2691359,30 49.5000001,30 L49.5000001,30 L49.5000001,30 Z" id="Stroke-3"/>
                                <path d="M53.3596296,23.9999999 C53.7769136,22.4509521 53.9999999,20.8246881 53.9999999,19.1448457 C53.9999999,8.57255416 45.2691358,0 34.4983951,0 C23.7292593,0 15,8.57255416 15,19.1448457 C15,20.7521997 15.2038272,22.3091267 15.5858025,23.7982928" id="Stroke-5"/>
                            </g>
                        </g>
                    </g>
                </g>
            </g>
            <g id="margin-trade" transform="translate(553.000000, 388.000000)" stroke-width="4" stroke="#FFFFFF" sketch:type="MSShapeGroup">
                <g id="Page-1">
                    <g id="Archived-orders">
                        <g id="Page-1">
                            <path d="M24.1119048,66 L39.185821,40.3333334 L54.2583281,66 L24.1119048,66 Z" id="Stroke-1"/>
                            <path d="M3.70952382,56.8333326 L75.8893332,22.2803452" id="Stroke-3"/>
                            <path d="M58.1405375,26.794904 C50.6155653,26.794904 44.5142857,20.796874 44.5142857,13.397452 C44.5142857,5.999822 50.6155653,0 58.1405375,0 C65.6673326,0 71.768612,5.999822 71.768612,13.397452 C71.768612,20.796874 65.6673326,26.794904 58.1405375,26.794904 L58.1405375,26.794904 Z" id="Stroke-5"/>
                            <path d="M9.70299819,45.0314396 C10.9090446,47.531932 9.82521703,50.5198279 7.28168135,51.7054649 C4.73814565,52.8911017 1.6988165,51.8256154 0.492770113,49.325123 C-0.713276277,46.8246306 0.370551262,43.8367348 2.91408696,42.6510978 C5.45762266,41.465461 8.49695181,42.5309472 9.70299819,45.0314396 L9.70299819,45.0314396 L9.70299819,45.0314396 Z" id="Stroke-9"/>
                        </g>
                    </g>
                </g>
            </g>
            <g id="main-logo" transform="translate(523.000000, 495.000000)" sketch:type="MSShapeGroup">
                <g id="Layer_1">
                    <g id="Group">
                        <path id="Shape" fill="#000000" d="M8.529,66.793 C8.361,67.222 8.199,67.653 8.035,68.085 L8.271,67.98 L8.529,66.793 L8.529,66.793 Z"/>
                        <path d="M106.215,169.656 C106.746,169.671 107.276,169.696 107.811,169.696 L112.926,169.696 L109.559,163.865 L106.215,169.656 L106.215,169.656 Z" id="Shape" fill="#19A6F2"/>
                        <path d="M101.576,189.118 C99.415,189.118 97.281,188.995 95.167,188.792 L80.57,214.073 C87.349,215.615 94.374,216.432 101.576,216.432 L139.909,216.432 L124.139,189.118 L101.576,189.118 L101.576,189.118 Z" id="Shape" fill="#19A6F2"/>
                        <path d="M169.887,144.128 L109.559,163.865 L112.926,169.696 L148.125,169.696 L147.938,169.513 L175.293,144.128 L169.887,144.128 Z" id="Shape" fill="#18C1F3"/>
                        <path d="M124.139,189.118 L139.908,216.433 L161.191,216.433 L171.336,189.118 L124.139,189.118 Z" id="Shape" fill="#18C1F3"/>
                        <path d="M177.52,169.702 L178.547,169.702 L179.088,168.245 L177.52,169.702 Z" id="Shape" fill="#18C1F3"/>
                        <path d="M96.893,141.929 C84.949,136.945 76.415,124.031 76.415,108.919 C76.415,108.136 76.446,107.363 76.491,106.593 L66.257,88.865 L59.729,144.409 L59.558,145.865 L61.208,146.459 L109.558,163.865 L96.893,141.929 L96.893,141.929 Z" id="Shape" fill="#17B8F3"/>
                        <path d="M61.208,146.459 C71.69,160.341 87.923,169.168 106.214,169.656 L109.558,163.865 L61.208,146.459 L61.208,146.459 Z" id="Shape" fill="#18C2F2"/>
                        <path d="M61.739,176.138 L64.084,208.701 C69.375,210.973 74.885,212.78 80.57,214.073 L95.167,188.792 C82.918,187.62 71.529,183.128 61.739,176.138 L61.739,176.138 Z" id="Shape" fill="#18C2F2"/>
                        <path d="M169.887,144.128 L107.811,144.128 C103.974,144.128 100.296,143.349 96.894,141.929 L109.56,163.866 L169.887,144.128 L169.887,144.128 Z" id="Shape" fill="#18F2F2"/>
                        <path d="M76.492,106.593 C76.754,102.113 77.763,97.859 79.386,93.988 L66.258,88.865 L76.492,106.593 L76.492,106.593 Z" id="Shape" fill="#18F2F2"/>
                        <path d="M95.601,109.038 C95.668,116.542 101.824,122.571 109.369,122.571 C109.412,122.571 109.451,122.567 109.494,122.567 L152.639,122.569 L97.983,101.244 C96.46,103.464 95.575,106.147 95.601,109.038 L95.601,109.038 Z" id="Shape" fill="#18F2F2"/>
                        <path d="M79.385,93.988 C80.361,91.661 81.557,89.474 82.943,87.457 L66.257,88.865 L79.385,93.988 L79.385,93.988 Z" id="Shape" fill="#18D1F4"/>
                        <path d="M168.562,95.26 L109.25,95.26 C104.555,95.301 100.437,97.667 97.983,101.244 L152.639,122.569 L182.83,122.571 L168.562,95.26 L168.562,95.26 Z" id="Shape" fill="#18D1F4"/>
                        <path d="M161.191,216.433 L205.059,216.433 L205.059,189.118 L171.336,189.118 L161.191,216.433 Z" id="Shape" fill="#19DEF3"/>
                        <path d="M179.088,168.245 L178.547,169.702 L205.059,169.702 L205.059,155.743 L199.77,149.04 L179.088,168.245 Z" id="Shape" fill="#19DEF3"/>
                        <path d="M205.059,155.743 L205.059,144.128 L199.77,149.04 L205.059,155.743 Z" id="Shape" fill="#19A7F3"/>
                        <path d="M1.27,120.076 C2.003,127.409 3.427,134.522 5.469,141.345 L17.541,119.9 L1.27,120.076 L1.27,120.076 Z" id="Shape" fill="#19D1F3"/>
                        <path d="M30.376,127.831 L17.541,119.899 L5.469,141.344 C8.536,151.593 12.999,161.179 18.616,169.848 L42.334,155.953 C36.805,147.638 32.69,138.122 30.376,127.831 L30.376,127.831 Z" id="Shape" fill="#02C1E9"/>
                        <path d="M8.271,67.98 L8.035,68.085 C3.303,80.575 0.689,94.218 0.689,108.503 C0.689,109.71 0.714,110.91 0.751,112.107 L17.541,119.899 L8.271,67.98 L8.271,67.98 Z" id="Shape" fill="#18A8F2"/>
                        <path d="M0.751,112.107 C0.833,114.789 1.007,117.446 1.27,120.076 L17.541,119.899 L0.751,112.107 L0.751,112.107 Z" id="Shape" fill="#18F2F2"/>
                        <path d="M17.542,119.899 L30.377,127.831 C28.984,121.636 28.231,115.165 28.231,108.503 C28.231,105.313 28.42,102.172 28.75,99.077 L8.271,67.98 L17.542,119.899 L17.542,119.899 Z" id="Shape" fill="#18C2F3"/>
                        <path d="M53.851,84.397 C50.662,91.739 48.878,99.991 48.878,108.915 C48.878,122.347 52.905,134.528 59.729,144.409 L66.257,88.865 L53.851,84.397 L53.851,84.397 Z" id="Shape" fill="#18E9F3"/>
                        <path d="M28.749,99.077 C29.564,91.422 31.341,84.087 33.973,77.237 L8.272,67.98 L28.749,99.077 L28.749,99.077 Z" id="Shape" fill="#18E9F3"/>
                        <path d="M42.334,155.954 L18.616,169.849 C29.816,187.13 45.604,200.76 64.083,208.702 L61.738,176.139 C54.207,170.759 47.625,163.911 42.334,155.954 L42.334,155.954 Z" id="Shape" fill="#19E0F3"/>
                        <path d="M174.588,73.699 L171.35,70.896 L168.453,73.699 L174.588,73.699 Z" id="Shape" fill="#19DFF3"/>
                        <path d="M182.834,122.571 L189.387,122.571 L187.227,95.26 L168.574,95.26 L168.562,95.26 L182.83,122.571 L182.834,122.571 Z" id="Shape" fill="#19DFF3"/>
                        <path d="M189.859,122.571 L205.682,109.866 L190.543,95.26 L187.227,95.26 L189.387,122.571 L189.859,122.571 Z" id="Shape" fill="#18C3F3"/>
                        <path d="M204.355,73.699 L204.355,54.539 L186.215,58.001 L204.355,73.699 Z" id="Shape" fill="#18C3F3"/>
                        <path d="M166.709,27.882 L150.939,0.568 L138.986,0.568 L135.775,27.882 L166.709,27.882 Z" id="Shape" fill="#19E0F4"/>
                        <path d="M176.82,49.871 L181.984,54.34 L179.404,49.871 L176.82,49.871 Z" id="Shape" fill="#19E0F4"/>
                        <path d="M168.453,73.699 L171.35,70.896 L147.049,49.868 L140.58,49.868 L156.312,73.699 L168.453,73.699 Z" id="Shape" fill="#18F3E8"/>
                        <path d="M204.355,27.882 L204.355,22.212 L169.061,0.568 L150.939,0.568 L166.709,27.882 L204.355,27.882 Z" id="Shape" fill="#19F3E7"/>
                        <path d="M204.355,54.539 L204.355,49.871 L179.404,49.871 L181.984,54.34 L186.215,58.001 L204.355,54.539 Z" id="Shape" fill="#19F3E7"/>
                        <path d="M204.355,0.568 L169.061,0.568 L204.355,22.212 L204.355,0.568 Z" id="Shape" fill="#18CAF2"/>
                        <path d="M75.131,59.307 C65.831,65.307 58.402,73.919 53.851,84.397 L66.257,88.865 L75.131,59.307 L75.131,59.307 Z" id="Shape" fill="#18A7F3"/>
                        <path d="M8.271,67.98 L33.972,77.237 C42.863,54.097 61.312,36.449 83.847,30.277 L85.906,23.424 L8.271,67.98 L8.271,67.98 Z" id="Shape" fill="#18A7F3"/>
                        <path d="M120.975,49.868 L107.811,49.868 C95.73,49.868 84.49,53.269 75.132,59.307 L66.258,88.865 L120.975,49.868 L120.975,49.868 Z" id="Shape" fill="#18C9F3"/>
                        <path d="M83.847,30.277 C88.681,28.953 93.702,28.166 98.859,27.958 L85.906,23.424 L83.847,30.277 L83.847,30.277 Z" id="Shape" fill="#18C9F3"/>
                        <path d="M82.183,2.577 C73.962,4.297 66.097,7.087 58.716,10.807 L85.905,23.425 L82.183,2.577 L82.183,2.577 Z" id="Shape" fill="#18F3E6"/>
                        <path d="M85.906,23.424 L58.716,10.807 C36.198,22.16 18.21,42.164 8.529,66.793 L8.271,67.98 L85.906,23.424 L85.906,23.424 Z" id="Shape" fill="#009FDC"/>
                        <path d="M98.859,27.958 C99.761,27.922 100.665,27.882 101.576,27.882 L123.854,27.882 L100.983,0.575 C94.558,0.615 88.273,1.302 82.183,2.576 L85.906,23.424 L98.859,27.958 L98.859,27.958 Z" id="Shape" fill="#17E6F2"/>
                        <path d="M135.775,27.882 L138.986,0.568 L101.575,0.568 C101.377,0.568 101.18,0.575 100.982,0.576 L123.853,27.883 L135.775,27.883 L135.775,27.882 Z" id="Shape" fill="#18CFF2"/>
                        <path d="M82.943,87.457 C88.689,79.099 97.695,73.699 107.811,73.699 L156.313,73.699 L140.58,49.868 L120.975,49.868 L66.258,88.866 L82.943,87.457 L82.943,87.457 Z" id="Shape" fill="#17E7F2"/>
                    </g>
                </g>
            </g>
            <g id="logo" transform="translate(297.000000, 511.000000)" sketch:type="MSShapeGroup">
                <g id="Layer_1">
                    <g id="Group" fill="#FFFFFF">
                        <path d="M39,38.3 C34.7,42.6 28.9,44.8 23.2,44.8 C8.6,44.8 1,34.6 1,22.9 C0.8,11.3 8.4,0.4 23.2,0.4 C28.9,0.4 34.7,2.6 39,6.9 L36.7,8.9 C33,5.2 28.1,3.4 23.2,3.4 C10.6,3.4 4.1,12.3 4.1,22.7 C4.2,32.9 10.7,41.7 23.2,41.7 C28.1,41.7 33,39.8 36.8,36.2 L39,38.3 L39,38.3 Z" id="Shape"/>
                        <path d="M47.6,21 L73,21 L73,24 L47.6,24 L47.6,41 L75,41 L75,44.2 L44.2,44.2 L44.2,0.9 L75.6,0.9 L75.6,4.1 L47.6,4.1 L47.6,21 L47.6,21 Z" id="Shape"/>
                        <path d="M109.1,0.9 L112.7,0.9 L112.7,1 L98,22 L113.9,44.2 L113.9,44.2 L109.9,44.2 L95.9,24.4 L81.9,44.2 L77.9,44.2 L77.9,44.2 L93.8,22 L79.1,1 L79.1,0.9 L82.7,0.9 L95.8,19.4 L109.1,0.9 L109.1,0.9 Z" id="Shape"/>
                    </g>
                    <g id="Group" transform="translate(114.000000, 0.000000)" fill="#00DCCA">
                        <path d="M14.5,44.3 L14.5,0.9 L17.7,0.9 L17.7,44.2 L14.5,44.3 L14.5,44.3 L14.5,44.3 Z" id="Shape"/>
                        <path d="M67.5,22.6 C67.4,34 60.2,45 45.7,45 C31.2,45 23.9,34 23.9,22.5 C23.9,10.9 31.1,0.2 45.7,0.2 C60.3,0.2 67.6,10.9 67.5,22.6 L67.5,22.6 Z M27.1,22.6 C27.2,32.4 33.3,41.9 45.7,41.9 C58.1,41.9 64.3,32.4 64.3,22.6 C64.3,12.6 58.1,3.3 45.7,3.3 C33.2,3.3 27,12.4 27.1,22.6 L27.1,22.6 Z" id="Shape"/>
                        <circle id="Oval" cx="2.4" cy="22.6" r="2.4"/>
                    </g>
                </g>
            </g>
            <g id="liquidity" transform="translate(278.000000, 381.000000)">
                <g id="Page-1">
                    <g>
                        <g>
                            <g id="liquidity">
                                <path d="M71.5293804,36.525641 C71.5293804,55.8568365 55.8568365,71.5293804 36.525641,71.5293804 C17.1929236,71.5293804 1.52190171,55.8568365 1.52190171,36.525641 C1.52190171,17.1944455 17.1929236,1.52190171 36.525641,1.52190171 C55.8568365,1.52190171 71.5293804,17.1944455 71.5293804,36.525641 L71.5293804,36.525641 L71.5293804,36.525641 Z" id="Stroke-1" stroke="#FFFFFF" stroke-width="4" sketch:type="MSShapeGroup"/>
                                <path d="M41.0913462,36.525641 C41.0913462,39.0459103 39.0459103,41.0913462 36.525641,41.0913462 C34.00385,41.0913462 31.9599359,39.0459103 31.9599359,36.525641 C31.9599359,34.0053718 34.00385,31.9599359 36.525641,31.9599359 C39.0459103,31.9599359 41.0913462,34.0053718 41.0913462,36.525641 L41.0913462,36.525641 L41.0913462,36.525641 Z" id="Stroke-3" stroke="#FFFFFF" stroke-width="4" sketch:type="MSShapeGroup"/>
                                <path d="M39.7537468,33.2975353 L54.8175298,18.2322303" id="Stroke-5" stroke="#FFFFFF" stroke-width="4" sketch:type="MSShapeGroup"/>
                                <path d="M7.43859898,36.96 L13.5262058,36.96" id="Stroke-7" stroke="#FFFFFF" stroke-width="4" sketch:type="MSShapeGroup"/>
                                <path d="M9.80759119,47.5906275 L15.4340618,45.2621179" id="Stroke-9" stroke="#FFFFFF" stroke-width="4" sketch:type="MSShapeGroup"/>
                                <path d="M63.2377554,47.5921493 L57.6158506,45.2621179" id="Stroke-11" stroke="#FFFFFF" stroke-width="4" sketch:type="MSShapeGroup"/>
                                <path d="M65.4387298,35.9396646 L59.3541667,35.9333333" id="Stroke-13" stroke="#FFFFFF" stroke-width="4" sketch:type="MSShapeGroup"/>
                                <path d="M63.2391251,25.4621766 L57.6156984,27.7891642" id="Stroke-15" stroke="#FFFFFF" stroke-width="4" sketch:type="MSShapeGroup"/>
                                <path d="M47.5921493,9.81215689 L45.2621177,15.4340618" id="Stroke-17" stroke="#FFFFFF" stroke-width="4" sketch:type="MSShapeGroup"/>
                                <path d="M35.9333333,8.17276436 L35.9333333,14.2603712" id="Stroke-19" stroke="#FFFFFF" stroke-width="4" sketch:type="MSShapeGroup"/>
                                <path d="M25.4621766,9.810635 L27.7891644,15.4340618" id="Stroke-21" stroke="#FFFFFF" stroke-width="4" sketch:type="MSShapeGroup"/>
                                <path d="M16.0810222,16.0781306 L20.3819164,20.3835904" id="Stroke-23" stroke="#FFFFFF" stroke-width="4" sketch:type="MSShapeGroup"/>
                                <path d="M9.81215689,25.4576109 L15.4340618,27.7891642" id="Stroke-25" stroke="#FFFFFF" stroke-width="4" sketch:type="MSShapeGroup"/>
                                <g id="Clip-28"/>
                                <g id="Stroke-27-Clipped">
                                    <mask id="mask-2" sketch:name="path-1" fill="white">
                                        <use xlink:href="#path-1"/>
                                    </mask>
                                    <g id="path-1"/>
                                    <path d="M50.0523035,59.410477 L22.6580727,59.410477 L22.6580727,50.2790667 L50.0523035,50.2790667 L50.0523035,59.410477 Z" id="Stroke-27" stroke="#FFFFFF" stroke-width="2" sketch:type="MSShapeGroup" mask="url(#mask-2)"/>
                                </g>
                            </g>
                        </g>
                    </g>
                </g>
            </g>
            <g id="legal" transform="translate(758.000000, 384.000000)" sketch:type="MSShapeGroup" stroke="#FFFFFF">
                <g id="Legal">
                    <g id="Page-1">
                        <g>
                            <g id="Legal">
                                <path d="M54.0283916,55.0635966 L44.1844618,51.549091 L44.1844618,40.7901746" id="Stroke-1" stroke-width="2"/>
                                <g id="Group-10" stroke-width="4">
                                    <path d="M25.7742694,41.5379966 L25.7742694,51.5476182 L7.32909758,58.134785 C2.93458466,59.7051744 0,63.86956 0,68.5383846 L0,75.4808682 L69.958731,75.4808682 L69.958731,68.5383846 C69.958731,66.933016 69.6126194,65.3884008 68.9774678,63.9873852" id="Stroke-2"/>
                                    <path d="M52.929303,22.0922308 C52.929303,34.2926654 44.685219,44.1844618 34.5191108,44.1844618 C24.3511614,44.1844618 16.1089183,34.2926654 16.1089183,22.0922308 C16.1089183,9.89179636 24.3511614,0 34.5191108,0 C44.685219,0 52.929303,9.89179636 52.929303,22.0922308 L52.929303,22.0922308 L52.929303,22.0922308 Z" id="Stroke-4"/>
                                    <path d="M52.8142394,20.0787082 C52.195657,20.1523488 51.7096278,20.1302566 51.0892044,20.251764 C44.8168518,21.4594726 40.7905428,19.1876548 37.3386316,13.1454297 C35.267485,17.1165082 28.7907794,20.251764 23.4720748,20.251764 C20.8559864,20.251764 18.6007379,19.7160273 16.3454893,18.535934" id="Stroke-6"/>
                                    <path d="M46.6418542,59.9150506 L53.6303632,68.1223144 L66.338919,53.2211046" id="Stroke-8"/>
                                </g>
                            </g>
                        </g>
                    </g>
                </g>
            </g>
            <g id="feature-3" transform="translate(138.000000, 242.000000)" sketch:type="MSShapeGroup">
                <g id="Layer_1">
                    <g id="Group" transform="translate(280.000000, 63.000000)" fill="#00ACB8">
                        <path d="M9.7,6.7 L2.3,6.7 L1.8,20.8 L10.8,20.8 L9.7,6.7 Z" id="Shape"/>
                        <circle id="Oval" cx="6.2" cy="6.7" r="6.1"/>
                    </g>
                    <g id="Group">
                        <g transform="translate(249.000000, 0.000000)" fill="#00ACB8">
                            <path d="M36.9,105.2 C17.5,105.2 1.7,90.1 0.9,70.8 L0.9,55.1 L4.9,55.1 L4.9,70.7 C5.6,87.8 19.7,101.2 36.9,101.2 C54.5,101.2 68.9,86.8 68.9,69.2 L68.9,55.1 L72.9,55.1 L72.9,69.2 C72.9,89 56.8,105.2 36.9,105.2 L36.9,105.2 Z" id="Shape"/>
                            <g>
                                <path d="M4.9,61.5 L0.9,61.5 L0.9,47.2 C0.9,41.1 7.4,33.9 11.6,33.9 L11.6,37.9 C10.2,37.9 4.9,42.6 4.9,47.2 L4.9,61.5 L4.9,61.5 Z" id="Shape"/>
                                <rect id="Rectangle-path" x="20" y="33.7" width="34.3" height="4"/>
                                <path d="M73.2,60 L69.2,60 L69.2,47.5 C69.2,43.1 64,38.4 62.5,38.2 L62.5,34.2 C66.2,34.2 73.2,41 73.2,47.5 L73.2,60 L73.2,60 Z" id="Shape"/>
                                <path d="M58.4,42 C52.7,42 52.3,38.1 52.3,36.9 L52.3,35.6 L56.3,35.6 L56.3,36.9 C56.3,37.4 56.3,38 58.4,38 C60.5,38 60.5,37.4 60.5,36.9 L60.5,35.9 L64.5,35.9 L64.5,36.9 C64.5,38.2 64,42 58.4,42 L58.4,42 Z" id="Shape"/>
                                <path d="M15.7,42 C10,42 9.6,38.1 9.6,36.9 L9.6,35.9 L13.6,35.9 L13.6,36.9 C13.6,37.4 13.6,38 15.7,38 C17.8,38 17.8,37.4 17.8,36.9 L17.8,35.6 L21.8,35.6 L21.8,36.9 C21.8,38.2 21.3,42 15.7,42 L15.7,42 Z" id="Shape"/>
                                <path d="M64.2,35.9 L60.2,35.9 L60.2,27.7 C60.2,14.8 49.7,4.4 36.9,4.4 C24,4.4 13.6,14.9 13.6,27.7 L13.6,35.9 L9.6,35.9 L9.6,27.7 C9.6,12.6 21.9,0.4 36.9,0.4 C52,0.4 64.2,12.7 64.2,27.7 L64.2,35.9 L64.2,35.9 Z" id="Shape"/>
                                <path d="M56.3,35.7 L52.3,35.7 L52.3,28 C52.3,19.7 45.5,12.9 37.2,12.9 C28.9,12.9 22,19.7 22,28 L22,35.7 L18,35.7 L18,28 C18,17.5 26.6,8.9 37.1,8.9 C47.6,8.9 56.2,17.5 56.2,28 L56.2,35.7 L56.3,35.7 Z" id="Shape"/>
                            </g>
                        </g>
                        <g transform="translate(0.000000, 27.000000)" fill="#25607F">
                            <rect id="Rectangle-path" x="133" y="47.3" width="109.7" height="4"/>
                            <rect id="Rectangle-path" x="11.3" y="33" width="231.4" height="4"/>
                            <path d="M242.7,23.5 L198.9,23.5 L184.6,8.9 L160.6,8.9 L160.6,4.9 L186.2,4.9 L200.6,19.5 L242.7,19.5 L242.7,23.5 Z" id="Shape"/>
                            <path d="M200.5,23.5 L117.1,23.5 L105.2,11.6 L108.1,8.8 L118.7,19.5 L200.5,19.5 L200.5,23.5 Z" id="Shape"/>
                            <rect id="Rectangle-path" transform="translate(193.454810, 55.410590) rotate(45.000000) translate(-193.454810, -55.410590) " x="191.454829" y="47.6106648" width="3.99996164" height="15.5998504"/>
                            <rect id="Rectangle-path" transform="translate(67.241355, 30.179095) rotate(45.000000) translate(-67.241355, -30.179095) " x="60.3914207" y="28.1791142" width="13.6998686" height="3.99996164"/>
                            <path d="M101.3,64.4 L73.9,64.4 L63,53.6 L65.9,50.7 L75.5,60.4 L99.7,60.4 L126.5,33.6 L129.3,36.4 L101.3,64.4 Z" id="Shape"/>
                            <rect id="Rectangle-path" x="90.3" y="47.3" width="23.3" height="4"/>
                            <path d="M156.3,13.2 C152.8,13.2 150,10.4 150,6.9 C150,3.4 152.8,0.6 156.3,0.6 C159.8,0.6 162.6,3.4 162.6,6.9 C162.6,10.4 159.8,13.2 156.3,13.2 L156.3,13.2 Z M156.3,4.5 C155,4.5 154,5.6 154,6.8 C154,8.1 155.1,9.1 156.3,9.1 C157.6,9.1 158.6,8 158.6,6.8 C158.6,5.6 157.5,4.5 156.3,4.5 L156.3,4.5 Z" id="Shape"/>
                            <path d="M104.1,13.2 C100.6,13.2 97.8,10.4 97.8,6.9 C97.8,3.4 100.6,0.6 104.1,0.6 C107.6,0.6 110.4,3.4 110.4,6.9 C110.4,10.4 107.6,13.2 104.1,13.2 L104.1,13.2 Z M104.1,4.5 C102.8,4.5 101.8,5.6 101.8,6.8 C101.8,8.1 102.9,9.1 104.1,9.1 C105.3,9.1 106.4,8 106.4,6.8 C106.4,5.6 105.4,4.5 104.1,4.5 L104.1,4.5 Z" id="Shape"/>
                            <path d="M59.6,28.6 C56.1,28.6 53.3,25.8 53.3,22.3 C53.3,18.8 56.1,16 59.6,16 C63.1,16 65.9,18.8 65.9,22.3 C65.9,25.7 63.1,28.6 59.6,28.6 L59.6,28.6 Z M59.6,19.9 C58.3,19.9 57.3,21 57.3,22.2 C57.3,23.5 58.4,24.5 59.6,24.5 C60.9,24.5 61.9,23.4 61.9,22.2 C61.9,20.9 60.9,19.9 59.6,19.9 L59.6,19.9 Z" id="Shape"/>
                            <path d="M88,55.7 C84.5,55.7 81.7,52.9 81.7,49.4 C81.7,45.9 84.5,43.1 88,43.1 C91.5,43.1 94.3,45.9 94.3,49.4 C94.3,52.9 91.5,55.7 88,55.7 L88,55.7 Z M88,47 C86.7,47 85.7,48.1 85.7,49.3 C85.7,50.6 86.8,51.6 88,51.6 C89.2,51.6 90.3,50.5 90.3,49.3 C90.3,48 89.3,47 88,47 L88,47 Z" id="Shape"/>
                            <path d="M128.9,55.7 C125.4,55.7 122.6,52.9 122.6,49.4 C122.6,45.9 125.4,43.1 128.9,43.1 C132.4,43.1 135.2,45.9 135.2,49.4 C135.2,52.9 132.4,55.7 128.9,55.7 L128.9,55.7 Z M128.9,47 C127.6,47 126.6,48.1 126.6,49.3 C126.6,50.6 127.7,51.6 128.9,51.6 C130.2,51.6 131.2,50.5 131.2,49.3 C131.2,48 130.2,47 128.9,47 L128.9,47 Z" id="Shape"/>
                            <path d="M185.7,68.7 C182.2,68.7 179.4,65.9 179.4,62.4 C179.4,58.9 182.2,56.1 185.7,56.1 C189.2,56.1 192,58.9 192,62.4 C192,65.9 189.2,68.7 185.7,68.7 L185.7,68.7 Z M185.7,60 C184.4,60 183.4,61.1 183.4,62.3 C183.4,63.6 184.5,64.6 185.7,64.6 C187,64.6 188,63.5 188,62.3 C188,61.1 187,60 185.7,60 L185.7,60 Z" id="Shape"/>
                            <path d="M61.4,55.7 C57.9,55.7 55.1,52.9 55.1,49.4 C55.1,45.9 57.9,43.1 61.4,43.1 C64.9,43.1 67.7,45.9 67.7,49.4 C67.7,52.9 64.9,55.7 61.4,55.7 L61.4,55.7 Z M61.4,47 C60.1,47 59.1,48.1 59.1,49.3 C59.1,50.6 60.2,51.6 61.4,51.6 C62.6,51.6 63.7,50.5 63.7,49.3 C63.7,48 62.7,47 61.4,47 L61.4,47 Z" id="Shape"/>
                            <path d="M6.9,41.4 C3.4,41.4 0.6,38.6 0.6,35.1 C0.6,31.6 3.4,28.8 6.9,28.8 C10.4,28.8 13.2,31.6 13.2,35.1 C13.2,38.6 10.4,41.4 6.9,41.4 L6.9,41.4 Z M6.9,32.7 C5.6,32.7 4.6,33.8 4.6,35 C4.6,36.3 5.7,37.3 6.9,37.3 C8.2,37.3 9.2,36.2 9.2,35 C9.3,33.7 8.2,32.7 6.9,32.7 L6.9,32.7 Z" id="Shape"/>
                        </g>
                        <g transform="translate(329.000000, 27.000000)" fill="#25607F">
                            <rect id="Rectangle-path" x="0.1" y="47.3" width="109.7" height="4"/>
                            <rect id="Rectangle-path" x="0.1" y="33" width="231.4" height="4"/>
                            <path d="M43.9,23.5 L0.1,23.5 L0.1,19.5 L42.2,19.5 L56.5,4.9 L82.2,4.9 L82.2,8.9 L58.2,8.9 L43.9,23.5 Z" id="Shape"/>
                            <path d="M125.7,23.5 L42.3,23.5 L42.3,19.5 L124.1,19.5 L134.7,8.8 L137.6,11.6 L125.7,23.5 Z" id="Shape"/>
                            <rect id="Rectangle-path" transform="translate(49.372300, 55.429480) rotate(45.000000) translate(-49.372300, -55.429480) " x="41.5723748" y="53.4294992" width="15.5998504" height="3.99996164"/>
                            <rect id="Rectangle-path" transform="translate(175.516285, 30.131215) rotate(45.000000) translate(-175.516285, -30.131215) " x="173.516304" y="23.2812807" width="3.99996164" height="13.6998686"/>
                            <path d="M168.9,64.4 L141.5,64.4 L113.5,36.4 L116.3,33.6 L143.1,60.4 L167.3,60.4 L176.9,50.7 L179.8,53.6 L168.9,64.4 Z" id="Shape"/>
                            <rect id="Rectangle-path" x="129.2" y="47.3" width="23.3" height="4"/>
                            <path d="M86.5,13.2 C83,13.2 80.2,10.4 80.2,6.9 C80.2,3.4 83,0.6 86.5,0.6 C90,0.6 92.8,3.4 92.8,6.9 C92.9,10.4 90,13.2 86.5,13.2 L86.5,13.2 Z M86.5,4.5 C85.2,4.5 84.2,5.6 84.2,6.8 C84.2,8.1 85.3,9.1 86.5,9.1 C87.8,9.1 88.8,8 88.8,6.8 C88.9,5.6 87.8,4.5 86.5,4.5 L86.5,4.5 Z" id="Shape"/>
                            <path d="M138.7,13.2 C135.2,13.2 132.4,10.4 132.4,6.9 C132.4,3.4 135.2,0.6 138.7,0.6 C142.2,0.6 145,3.4 145,6.9 C145,10.4 142.2,13.2 138.7,13.2 L138.7,13.2 Z M138.7,4.5 C137.4,4.5 136.4,5.6 136.4,6.8 C136.4,8.1 137.5,9.1 138.7,9.1 C140,9.1 141,8 141,6.8 C141,5.6 140,4.5 138.7,4.5 L138.7,4.5 Z" id="Shape"/>
                            <path d="M183.2,28.6 C179.7,28.6 176.9,25.8 176.9,22.3 C176.9,18.8 179.7,16 183.2,16 C186.7,16 189.5,18.8 189.5,22.3 C189.5,25.7 186.7,28.6 183.2,28.6 L183.2,28.6 Z M183.2,19.9 C181.9,19.9 180.9,21 180.9,22.2 C180.9,23.5 182,24.5 183.2,24.5 C184.4,24.5 185.5,23.4 185.5,22.2 C185.5,20.9 184.5,19.9 183.2,19.9 L183.2,19.9 Z" id="Shape"/>
                            <path d="M154.8,55.7 C151.3,55.7 148.5,52.9 148.5,49.4 C148.5,45.9 151.3,43.1 154.8,43.1 C158.3,43.1 161.1,45.9 161.1,49.4 C161.1,52.9 158.3,55.7 154.8,55.7 L154.8,55.7 Z M154.8,47 C153.5,47 152.5,48.1 152.5,49.3 C152.5,50.6 153.6,51.6 154.8,51.6 C156.1,51.6 157.1,50.5 157.1,49.3 C157.2,48 156.1,47 154.8,47 L154.8,47 Z" id="Shape"/>
                            <path d="M113.9,55.7 C110.4,55.7 107.6,52.9 107.6,49.4 C107.6,45.9 110.4,43.1 113.9,43.1 C117.4,43.1 120.2,45.9 120.2,49.4 C120.2,52.9 117.4,55.7 113.9,55.7 L113.9,55.7 Z M113.9,47 C112.6,47 111.6,48.1 111.6,49.3 C111.6,50.6 112.7,51.6 113.9,51.6 C115.1,51.6 116.2,50.5 116.2,49.3 C116.2,48 115.2,47 113.9,47 L113.9,47 Z" id="Shape"/>
                            <path d="M57.1,68.7 C53.6,68.7 50.8,65.9 50.8,62.4 C50.8,58.9 53.6,56.1 57.1,56.1 C60.6,56.1 63.4,58.9 63.4,62.4 C63.4,65.9 60.6,68.7 57.1,68.7 L57.1,68.7 Z M57.1,60 C55.8,60 54.8,61.1 54.8,62.3 C54.8,63.6 55.9,64.6 57.1,64.6 C58.3,64.6 59.4,63.5 59.4,62.3 C59.5,61.1 58.4,60 57.1,60 L57.1,60 Z" id="Shape"/>
                            <path d="M181.4,55.7 C177.9,55.7 175.1,52.9 175.1,49.4 C175.1,45.9 177.9,43.1 181.4,43.1 C184.9,43.1 187.7,45.9 187.7,49.4 C187.7,52.9 184.9,55.7 181.4,55.7 L181.4,55.7 Z M181.4,47 C180.1,47 179.1,48.1 179.1,49.3 C179.1,50.6 180.2,51.6 181.4,51.6 C182.6,51.6 183.7,50.5 183.7,49.3 C183.8,48 182.7,47 181.4,47 L181.4,47 Z" id="Shape"/>
                            <path d="M235.9,41.4 C232.4,41.4 229.6,38.6 229.6,35.1 C229.6,31.6 232.4,28.8 235.9,28.8 C239.4,28.8 242.2,31.6 242.2,35.1 C242.2,38.6 239.4,41.4 235.9,41.4 L235.9,41.4 Z M235.9,32.7 C234.6,32.7 233.6,33.8 233.6,35 C233.6,36.3 234.7,37.3 235.9,37.3 C237.1,37.3 238.2,36.2 238.2,35 C238.2,33.7 237.2,32.7 235.9,32.7 L235.9,32.7 Z" id="Shape"/>
                        </g>
                    </g>
                </g>
            </g>
            <g id="feature-2" transform="translate(131.000000, 133.000000)" sketch:type="MSShapeGroup">
                <g id="Layer_1">
                    <g id="Group">
                        <g transform="translate(8.000000, 2.000000)" id="Rectangle-path" fill="#10406D">
                            <rect x="0.6" y="23.2" width="2" height="43.5"/>
                            <rect x="70.7" y="15.9" width="2" height="58.4"/>
                            <rect x="140.8" y="10" width="2" height="69.8"/>
                            <rect x="210.6" y="0.8" width="2" height="88.3"/>
                            <rect x="350.4" y="0.8" width="2" height="88.3"/>
                            <rect x="420.5" y="10" width="2" height="69.8"/>
                            <rect x="490.6" y="15.9" width="2" height="58.4"/>
                            <rect x="560.4" y="23.2" width="2" height="43.5"/>
                        </g>
                        <g>
                            <g transform="translate(16.000000, 44.000000)" id="Rectangle-path" fill="#25607F">
                                <rect x="490.6" y="0.9" width="56.1" height="4"/>
                                <rect x="140.5" y="0.9" width="56.1" height="4"/>
                                <rect x="210.5" y="0.9" width="18.5" height="4"/>
                                <rect x="318" y="0.9" width="18.7" height="4"/>
                                <rect x="0.6" y="0.9" width="56.1" height="4"/>
                                <rect x="70.7" y="0.9" width="56.1" height="4"/>
                                <rect x="350.4" y="0.9" width="56.1" height="4"/>
                                <rect x="420.5" y="0.9" width="56.1" height="4"/>
                            </g>
                            <g id="Shape" fill="#00A3B0">
                                <path d="M336,46.9 L332,46.9 C332,23.4 312.8,4.2 289.3,4.2 C265.8,4.2 246.6,23.4 246.6,46.9 L242.6,46.9 C242.6,21.2 263.5,0.2 289.3,0.2 C315,0.2 336,21.1 336,46.9 L336,46.9 Z"/>
                                <path d="M289.7,93.6 C264,93.6 243,72.7 243,46.9 L247,46.9 C247,70.4 266.2,89.6 289.7,89.6 C313.2,89.6 332.4,70.4 332.4,46.9 L336.4,46.9 C336.4,72.6 315.4,93.6 289.7,93.6 L289.7,93.6 Z"/>
                                <path d="M429.5,55.9 C424.5,55.9 420.5,51.9 420.5,46.9 L424.5,46.9 C424.5,49.7 426.7,51.9 429.5,51.9 C432.3,51.9 434.5,49.7 434.5,46.9 L438.5,46.9 C438.5,51.9 434.4,55.9 429.5,55.9 L429.5,55.9 Z"/>
                                <path d="M438.5,46.9 L434.5,46.9 C434.5,44.1 432.3,41.9 429.5,41.9 C426.7,41.9 424.5,44.1 424.5,46.9 L420.5,46.9 C420.5,41.9 424.5,37.9 429.5,37.9 C434.5,37.9 438.5,41.9 438.5,46.9 L438.5,46.9 Z"/>
                                <path d="M578.4,46.9 L574.4,46.9 C574.4,44.1 572.2,41.9 569.4,41.9 C566.6,41.9 564.4,44.1 564.4,46.9 L560.4,46.9 C560.4,41.9 564.4,37.9 569.4,37.9 C574.3,37.9 578.4,41.9 578.4,46.9 L578.4,46.9 Z"/>
                                <path d="M569.7,55.9 C564.7,55.9 560.7,51.9 560.7,46.9 L564.7,46.9 C564.7,49.7 566.9,51.9 569.7,51.9 C572.5,51.9 574.7,49.7 574.7,46.9 L578.7,46.9 C578.7,51.9 574.6,55.9 569.7,55.9 L569.7,55.9 Z"/>
                                <path d="M149.8,55.9 C144.8,55.9 140.8,51.9 140.8,46.9 L144.8,46.9 C144.8,49.7 147,51.9 149.8,51.9 C152.6,51.9 154.8,49.7 154.8,46.9 L158.8,46.9 C158.8,51.9 154.8,55.9 149.8,55.9 L149.8,55.9 Z"/>
                                <path d="M158.5,46.9 L154.5,46.9 C154.5,44.1 152.3,41.9 149.5,41.9 C146.7,41.9 144.5,44.1 144.5,46.9 L140.5,46.9 C140.5,41.9 144.5,37.9 149.5,37.9 C154.5,37.9 158.5,41.9 158.5,46.9 L158.5,46.9 Z"/>
                                <path d="M9.6,55.9 C4.6,55.9 0.6,51.9 0.6,46.9 C0.6,41.9 4.6,37.9 9.6,37.9 C14.6,37.9 18.6,41.9 18.6,46.9 C18.6,51.9 14.6,55.9 9.6,55.9 L9.6,55.9 Z M9.6,41.9 C6.8,41.9 4.6,44.1 4.6,46.9 C4.6,49.7 6.8,51.9 9.6,51.9 C12.5,51.9 14.6,49.8 14.6,46.9 C14.6,44.1 12.4,41.9 9.6,41.9 L9.6,41.9 Z"/>
                                <path d="M79.7,55.9 C74.7,55.9 70.7,51.9 70.7,46.9 L74.7,46.9 C74.7,49.7 76.9,51.9 79.7,51.9 C82.5,51.9 84.7,49.7 84.7,46.9 L88.7,46.9 C88.7,51.9 84.7,55.9 79.7,55.9 L79.7,55.9 Z"/>
                                <path d="M88.7,46.9 L84.7,46.9 C84.7,44.1 82.5,41.9 79.7,41.9 C76.9,41.9 74.7,44.1 74.7,46.9 L70.7,46.9 C70.7,41.9 74.7,37.9 79.7,37.9 C84.7,37.9 88.7,41.8 88.7,46.9 L88.7,46.9 Z"/>
                                <path d="M228.5,46.9 L224.5,46.9 C224.5,44.1 222.3,41.9 219.5,41.9 C216.7,41.9 214.5,44.1 214.5,46.9 L210.5,46.9 C210.5,41.9 214.5,37.9 219.5,37.9 C224.5,37.9 228.5,41.9 228.5,46.9 L228.5,46.9 Z"/>
                                <path d="M219.6,55.9 C214.6,55.9 210.6,51.9 210.6,46.9 L214.6,46.9 C214.6,49.7 216.8,51.9 219.6,51.9 C222.4,51.9 224.6,49.7 224.6,46.9 L228.6,46.9 C228.6,51.9 224.6,55.9 219.6,55.9 L219.6,55.9 Z"/>
                                <path d="M359.7,55.9 C354.7,55.9 350.7,51.9 350.7,46.9 L354.7,46.9 C354.7,49.7 356.9,51.9 359.7,51.9 C362.5,51.9 364.7,49.7 364.7,46.9 L368.7,46.9 C368.7,51.9 364.7,55.9 359.7,55.9 L359.7,55.9 Z"/>
                                <path d="M368.4,46.9 L364.4,46.9 C364.4,44.1 362.2,41.9 359.4,41.9 C356.6,41.9 354.4,44.1 354.4,46.9 L350.4,46.9 C350.4,41.9 354.4,37.9 359.4,37.9 C364.4,37.9 368.4,41.9 368.4,46.9 L368.4,46.9 Z"/>
                                <path d="M499.6,55.9 C494.6,55.9 490.6,51.9 490.6,46.9 L494.6,46.9 C494.6,49.7 496.8,51.9 499.6,51.9 C502.4,51.9 504.6,49.7 504.6,46.9 L508.6,46.9 C508.6,51.9 504.5,55.9 499.6,55.9 L499.6,55.9 Z"/>
                                <path d="M508.6,46.9 L504.6,46.9 C504.6,44.1 502.4,41.9 499.6,41.9 C496.8,41.9 494.6,44.1 494.6,46.9 L490.6,46.9 C490.6,41.9 494.6,37.9 499.6,37.9 C504.6,37.9 508.6,41.9 508.6,46.9 L508.6,46.9 Z"/>
                            </g>
                        </g>
                        <path d="M287.9,69.3 L264.8,46.1 L270.4,40.5 L287.5,57.5 L312.9,28.2 L318.9,33.4 L287.9,69.3 Z" id="Shape" fill="#00A7BF"/>
                    </g>
                </g>
            </g>
            <g id="feature-1" transform="translate(131.000000, 0.000000)" sketch:type="MSShapeGroup">
                <g id="Layer_1">
                    <path d="M297.7,106.8 C296.7,106.8 295.8,106 295.7,105 L285,17.5 L276.6,77.2 C276.5,78.2 275.6,78.9 274.6,78.9 C273.6,78.9 272.8,78.2 272.6,77.2 L266.8,39.8 L264.5,50.4 C264.3,51.3 263.5,52 262.5,52 L194.8,52 C193.7,52 192.8,51.1 192.8,50 C192.8,48.9 193.7,48 194.8,48 L261,48 L265.2,28.4 C265.4,27.5 266.2,26.8 267.2,26.8 C268.2,26.8 269,27.5 269.1,28.5 L274.5,63.2 L283.2,1.8 C283.3,0.8 284.2,-1.57651669e-14 285.2,0.1 C286.2,0.1 287,0.9 287.2,1.9 L297.5,86.6 L303.6,25.7 C303.7,24.8 304.4,24 305.4,23.9 C306.3,23.8 307.2,24.4 307.5,25.3 L314.7,47.7 L390.8,47.7 C391.9,47.7 392.8,48.6 392.8,49.7 C392.8,50.8 391.9,51.7 390.8,51.7 L313.2,51.7 C312.3,51.7 311.6,51.1 311.3,50.3 L306.6,35.6 L299.6,104.9 C299.6,106 298.8,106.8 297.7,106.8 L297.7,106.8 L297.7,106.8 Z" id="Shape" fill="url(#linearGradient-3)"/>
                    <path d="M436.1,70.3 C435.3,70.3 434.5,69.8 434.2,69 L423.3,40.2 L415,57.2 C414.7,57.8 414.1,58.3 413.4,58.3 C412.7,58.4 412,58.1 411.6,57.5 L404.4,47.8 L401.5,51.2 C401.1,51.6 400.6,51.9 400,51.9 L377.2,51.9 C376.1,51.9 375.2,51 375.2,49.9 C375.2,48.8 376.1,47.9 377.2,47.9 L399.1,47.9 L403.1,43.3 C403.5,42.8 404.1,42.6 404.7,42.6 C405.3,42.6 405.9,42.9 406.2,43.4 L412.9,52.5 L421.8,34.3 C422.2,33.6 422.9,33.1 423.7,33.2 C424.5,33.2 425.2,33.7 425.5,34.5 L436.1,62.6 L442.4,44.9 C442.7,44.2 443.3,43.7 444,43.6 C444.8,43.5 445.5,43.8 445.9,44.5 L449.6,50.1 L572.7,50.1 C573.8,50.1 574.7,51 574.7,52.1 C574.7,53.2 573.8,54.1 572.7,54.1 L448.6,54.1 C447.9,54.1 447.3,53.8 446.9,53.2 L444.8,50 L438,69 C437.7,69.7 437,70.3 436.1,70.3 L436.1,70.3 L436.1,70.3 Z" id="Shape" fill="url(#linearGradient-4)"/>
                    <path d="M160.6,70.3 C159.8,70.3 159,69.8 158.7,69 L147.8,40.2 L139.5,57.2 C139.2,57.8 138.6,58.2 137.9,58.3 C137.2,58.4 136.5,58.1 136.1,57.6 L130,49.9 L127.2,53.3 C126.8,53.8 126.3,54 125.7,54 L2.5,54 C1.4,54 0.5,53.1 0.5,52 C0.5,50.9 1.4,50 2.5,50 L124.8,50 L128.5,45.4 C128.9,44.9 129.4,44.7 130,44.7 L130,44.7 C130.6,44.7 131.2,45 131.6,45.5 L137.3,52.6 L146.2,34.3 C146.6,33.6 147.3,33.1 148.1,33.2 C148.9,33.2 149.6,33.7 149.9,34.5 L160.5,62.6 L166.8,44.9 C167.1,44.1 167.8,43.6 168.6,43.6 C169.4,43.6 170.2,44 170.5,44.7 L172.1,48.1 L200,48.1 C201.1,48.1 202,49 202,50.1 C202,51.2 201.1,52.1 200,52.1 L170.9,52.1 C170.1,52.1 169.4,51.7 169.1,51 L169,50.8 L162.5,69.1 C162.2,69.7 161.4,70.3 160.6,70.3 L160.6,70.3 L160.6,70.3 Z" id="Shape" fill="url(#linearGradient-5)"/>
                    <g id="Group" transform="translate(241.000000, 1.000000)" fill="#25607F">
                        <rect id="Rectangle-path" transform="translate(82.767450, 83.285810) rotate(45.000000) translate(-82.767450, -83.285810) " x="71.0675622" y="81.2858292" width="23.3997756" height="3.99996164"/>
                        <rect id="Rectangle-path" transform="translate(10.219250, 10.665290) rotate(45.000000) translate(-10.219250, -10.665290) " x="-1.4806378" y="8.66530918" width="23.3997756" height="3.99996164"/>
                        <rect id="Rectangle-path" transform="translate(82.803610, 10.701550) rotate(45.000000) translate(-82.803610, -10.701550) " x="80.8036292" y="-0.998337796" width="3.99996164" height="23.3997756"/>
                        <rect id="Rectangle-path" transform="translate(10.253800, 83.178940) rotate(45.000000) translate(-10.253800, -83.178940) " x="8.25381918" y="71.4790522" width="3.99996164" height="23.3997756"/>
                    </g>
                </g>
            </g>
            <g id="cross-platform" transform="translate(457.000000, 382.000000)" stroke-width="4" stroke="#FFFFFF" sketch:type="MSShapeGroup">
                <g id="Cross-platform">
                    <g id="Page-1">
                        <g>
                            <g id="Cross-platform">
                                <path d="M54.2540955,47.8449806 C55.068641,47.942409 55.8973935,47.9888034 56.7356178,47.9888034 C67.9640324,47.9980824 77.0850473,39.0717876 77.0850473,28.0484632 C77.0850473,17.0436964 67.9735037,8.12204116 56.7356178,8.12204116 C51.9383237,8.12204116 47.5293597,9.74120792 44.0485984,12.4599235" id="Stroke-1"/>
                                <path d="M20.2734076,37.4506016 L0,37.4506016 L0,0 L37.9307375,0 L37.9307375,18.3640638" id="Stroke-3"/>
                                <path d="M11.1815673,69.7343212 L34.4294387,29.8675518 L57.6773101,69.7343212 L11.1815673,69.7343212 Z" id="Stroke-5"/>
                            </g>
                        </g>
                    </g>
                </g>
            </g>
            <g id="coverege" transform="translate(369.000000, 380.000000)" stroke-width="4" stroke="#FFFFFF" sketch:type="MSShapeGroup">
                <g id="Page-1">
                    <g>
                        <g>
                            <g id="coverege">
                                <path d="M56.8731412,29.1917206 C56.8731412,44.3645467 44.5154897,56.6662812 29.2736963,56.6662812 C14.0319028,56.6662812 1.67425133,44.3645467 1.67425133,29.1917206 C1.67425133,14.0188945 14.0319028,1.71716004 29.2736963,1.71716004 C44.5154897,1.71716004 56.8731412,14.0188945 56.8731412,29.1917206 L56.8731412,29.1917206 L56.8731412,29.1917206 Z" id="Stroke-1"/>
                                <path d="M27,66.9692414 L27,72.1207216" id="Stroke-3"/>
                                <path d="M30,66.9692414 L30,72.1207216" id="Stroke-5"/>
                                <path d="M49.9092837,78.9893616 C44.1496246,74.6947444 37.022068,72.1207216 29.2735238,72.1207216 C21.5249796,72.1207216 14.395698,74.6947444 8.63603882,78.9893616 L49.9092837,78.9893616 L49.9092837,78.9893616 L49.9092837,78.9893616 Z" id="Stroke-7"/>
                                <path d="M56.1082917,2.4785488 C70.9274686,17.2323878 70.9291936,41.1507099 56.1082917,55.9062663 C41.2873896,70.6583881 17.2603479,70.6583881 2.43944595,55.9045491" id="Stroke-9"/>
                                <path d="M53.6691906,4.90747167 L58.5473925,0.0496259251" id="Stroke-11"/>
                                <path d="M0,58.3339871 L4.87820191,53.4761413" id="Stroke-13"/>
                            </g>
                        </g>
                    </g>
                </g>
            </g>
            <g id="comissions" transform="translate(669.000000, 396.000000)" stroke-width="4" stroke="#FFFFFF" sketch:type="MSShapeGroup">
                <g id="Page-1">
                    <g>
                        <g>
                            <g id="comissions">
                                <path d="M20.9102902,10.5668673 C20.9102902,16.3407063 16.2296358,21.0213608 10.4557968,21.0213608 C4.68032864,21.0213608 -0.000325837416,16.3407063 -0.000325837416,10.5668673 C-0.000325837416,4.79302832 4.68032864,0.112373847 10.4557968,0.112373847 C16.2296358,0.112373847 20.9102902,4.79302832 20.9102902,10.5668673 L20.9102902,10.5668673 L20.9102902,10.5668673 Z" id="Stroke-1"/>
                                <path d="M57.5032984,47.1598754 C57.5032984,52.9337144 52.8226438,57.6143688 47.0488048,57.6143688 C41.2733366,57.6143688 36.5926822,52.9337144 36.5926822,47.1598754 C36.5926822,41.3860364 41.2733366,36.7053818 47.0488048,36.7053818 C52.8226438,36.7053818 57.5032984,41.3860364 57.5032984,47.1598754 L57.5032984,47.1598754 L57.5032984,47.1598754 Z" id="Stroke-3"/>
                                <path d="M1.47506598,56.1399546 L56.0283952,1.58662523" id="Stroke-5"/>
                            </g>
                        </g>
                    </g>
                </g>
            </g>
            <g id="buy-bitcoins" transform="translate(0.000000, 480.000000)" sketch:type="MSShapeGroup">
                <g id="Layer_1">
                    <path d="M94.3,83.3 L86.1,81.8 L80.7,83.3 L70.5,81.2 L79.7,88.9 L94.3,83.3 Z" id="Shape" fill="#2E4D68"/>
                    <g id="Group" transform="translate(62.000000, 21.000000)" fill="#FBFBFB">
                        <path d="M17.6,22.1 C16.5,22.1 15.6,21.2 15.6,20.1 C15.6,19 16.5,18.1 17.6,18.1 C20.1,18.1 22.1,15.9 22.1,13.2 C22.1,11.9 21.6,10.6 20.7,9.7 C19.9,8.9 18.8,8.5 17.6,8.5 C16.5,8.5 15.6,7.6 15.6,6.5 C15.6,5.4 16.5,4.5 17.6,4.5 C19.8,4.5 21.9,5.3 23.5,6.9 C25.2,8.6 26.1,10.8 26.1,13.2 C26.1,18.1 22.3,22.1 17.6,22.1 L17.6,22.1 L17.6,22.1 Z" id="Shape"/>
                        <path d="M3.1,8.7 C2,8.7 1.1,7.8 1.1,6.7 C1.1,5.6 2,4.7 3.1,4.7 L17.5,4.5 L17.5,4.5 C18.6,4.5 19.5,5.4 19.5,6.5 C19.5,7.6 18.6,8.5 17.5,8.5 L3.1,8.7 L3.1,8.7 L3.1,8.7 Z" id="Shape"/>
                        <path d="M8.5,22.3 C7.4,22.3 6.5,21.4 6.5,20.3 C6.5,19.2 7.4,18.3 8.5,18.3 L17.6,18.1 L17.6,18.1 C18.7,18.1 19.6,19 19.6,20.1 C19.6,21.2 18.7,22.1 17.6,22.1 L8.5,22.3 L8.5,22.3 L8.5,22.3 Z" id="Shape"/>
                        <path d="M17.7,37.3 C16.6,37.3 15.7,36.4 15.7,35.3 C15.7,34.2 16.6,33.3 17.7,33.3 C20.6,33.3 23,30.7 23,27.6 C23,26 22.4,24.6 21.3,23.6 C20.3,22.6 19.1,22.2 17.7,22.2 L17.7,22.2 C16.6,22.2 15.7,21.3 15.7,20.2 C15.7,19.1 16.6,18.2 17.7,18.2 C20.1,18.2 22.4,19.1 24.1,20.8 C25.9,22.6 26.9,25.1 26.9,27.7 C26.9,32.9 22.8,37.2 17.7,37.3 L17.7,37.3 L17.7,37.3 Z" id="Shape"/>
                        <path d="M2.6,37.6 C1.5,37.6 0.6,36.7 0.6,35.6 C0.6,34.5 1.5,33.6 2.6,33.6 L17.7,33.4 C18.9,33.4 19.7,34.3 19.7,35.4 C19.7,36.5 18.8,37.4 17.7,37.4 L2.6,37.6 L2.6,37.6 L2.6,37.6 Z" id="Shape"/>
                        <path d="M7.6,37.5 C6.5,37.5 5.6,36.6 5.6,35.5 L5.6,6.7 C5.6,5.6 6.5,4.7 7.6,4.7 L7.6,4.7 C8.7,4.7 9.6,5.6 9.6,6.7 L9.6,35.5 C9.6,36.6 8.7,37.5 7.6,37.5 L7.6,37.5 L7.6,37.5 Z" id="Shape"/>
                        <path d="M12.4,8.6 C11.3,8.6 10.4,7.7 10.4,6.6 L10.4,2.5 C10.4,1.4 11.3,0.5 12.4,0.5 L12.4,0.5 C13.5,0.5 14.4,1.4 14.4,2.5 L14.4,6.6 C14.4,7.7 13.5,8.6 12.4,8.6 L12.4,8.6 L12.4,8.6 Z" id="Shape"/>
                        <path d="M17.6,8.5 C16.5,8.5 15.6,7.6 15.6,6.5 L15.6,2.4 C15.6,1.3 16.5,0.4 17.6,0.4 L17.6,0.4 C18.7,0.4 19.6,1.3 19.6,2.4 L19.6,6.5 C19.6,7.6 18.7,8.5 17.6,8.5 L17.6,8.5 L17.6,8.5 Z" id="Shape"/>
                        <path d="M12.4,41.5 C11.3,41.5 10.4,40.6 10.4,39.5 L10.4,35.4 C10.4,34.3 11.3,33.4 12.4,33.4 L12.4,33.4 C13.5,33.4 14.4,34.3 14.4,35.4 L14.4,39.5 C14.4,40.6 13.5,41.5 12.4,41.5 L12.4,41.5 L12.4,41.5 Z" id="Shape"/>
                        <path d="M17.6,41.4 C16.5,41.4 15.6,40.5 15.6,39.4 L15.6,35.3 C15.6,34.2 16.5,33.3 17.6,33.3 L17.6,33.3 C18.7,33.3 19.6,34.2 19.6,35.3 L19.6,39.4 C19.6,40.5 18.7,41.4 17.6,41.4 L17.6,41.4 L17.6,41.4 Z" id="Shape"/>
                    </g>
                    <g id="Group">
                        <g transform="translate(76.000000, 1.000000)" id="Shape" fill-opacity="0.159999996" fill="#052E4A">
                            <path d="M39.8,64.4 C43.6,58.4 46.1,49.9 46.1,40.8 C46.1,18.7 31.5,0.9 13.4,0.9 C11.4,0.9 0.7,0.7 0.7,0.7 C18.7,0.7 33.4,18.6 33.4,40.6 C33.4,57.1 25.2,71.3 13.5,77.4 L10.2,78.9 C32.9,85.3 39.8,64.4 39.8,64.4 L39.8,64.4 Z"/>
                        </g>
                        <g transform="translate(33.000000, 59.000000)" id="Shape" fill="#FFFFFF">
                            <path d="M86.3,7.2 C83.6,6.6 80.7,6.8 78.5,9.5 L64.5,23 L47.3,29.5 L32.5,19.7 L46.1,23.4 C46.8,23.7 47.6,23.8 48.4,23.8 C50.9,23.8 53.3,22.3 54.3,19.7 C55.6,16.4 53.9,12.8 50.7,11.5 L22.3,0.7 C21.2,0.3 20.1,0.2 19.1,0.4 C12.4,1.7 6.7,4.6 4.1,6.1 L4.1,3.4 C0.1,6.8 -0.3,24.8 1.9,35.2 L4.1,35 C7,34.7 11.7,34.3 13.3,34.3 C18.1,34.3 23.8,36 23.8,36 L46.3,43.9 C47.1,44.2 47.8,44.3 48.6,44.3 C49.7,44.3 50.8,44 51.8,43.4 L66.5,36.1 L73.5,31.6 L85.8,14.6 C88.6,10.8 89.7,7.7 86.3,7.2 L86.3,7.2 Z M4.1,34 L4.3,33.9 L4.1,34 L4.1,34 L4.1,34 Z"/>
                        </g>
                        <path d="M37,102.4 C36.7,102.4 36.4,102.3 36.1,102.1 C35.4,101.6 35.3,100.7 35.8,100 C36.5,99 37.3,96.9 37.8,94.3 C38,93.5 38.8,93 39.6,93.1 C40.4,93.3 40.9,94.1 40.8,94.9 C40.1,98.1 39.3,100.4 38.3,101.8 C37.9,102.2 37.5,102.4 37,102.4 L37,102.4 Z" id="Shape" fill="#2E4D68"/>
                        <path d="M86.2,81.7 C85.6,81.7 85.1,81.4 84.8,80.8 C84.5,80 84.8,79.2 85.6,78.8 L88.9,77.3 C100.4,71.3 107.9,57.4 107.9,41.9 C107.9,20.7 93.9,3.5 76.7,3.5 L76.7,3.5 C59.5,3.5 45.6,20.8 45.6,42 C45.6,48.3 46.9,54.5 49.2,60 C49.5,60.8 49.2,61.6 48.4,62 C47.6,62.3 46.8,62 46.4,61.2 C43.9,55.3 42.5,48.7 42.5,42 C42.6,19 57.9,0.4 76.7,0.4 L76.7,0.4 C95.5,0.4 110.8,19 110.9,41.8 C110.9,58.4 102.8,73.4 90.2,79.9 L86.8,81.4 C86.6,81.6 86.4,81.7 86.2,81.7 L86.2,81.7 Z" id="Shape" fill="#2E4D68"/>
                        <path d="M83.7,72.8 C83,72.8 82.4,72.3 82.2,71.7 C82,70.9 82.5,70.1 83.3,69.9 L85.3,69.4 C93.9,64.8 99.4,54 99.4,41.9 C99.4,33.9 97,26.4 92.6,20.8 C88.3,15.3 82.6,12.2 76.7,12.2 L76.7,12.2 C64.2,12.2 54,25.5 54,41.9 C54,48.2 55.5,54.3 58.4,59.4 C58.8,60.1 58.5,61 57.8,61.4 C57.1,61.8 56.2,61.5 55.8,60.8 C52.7,55.2 51,48.7 51,41.8 C51,23.8 62.5,9.1 76.7,9.1 L76.7,9.1 C83.6,9.1 90.1,12.6 95,18.8 C99.8,25 102.4,33.1 102.4,41.8 C102.4,55.1 96.2,66.9 86.5,72 L86.2,72.1 L84,72.7 C83.9,72.8 83.8,72.8 83.7,72.8 L83.7,72.8 Z" id="Shape" fill="#2E4D68"/>
                        <path d="M115.8,67.1 C115.5,67.1 115.2,67 115,66.9 C114.3,66.5 114.1,65.5 114.5,64.8 C118.4,58.7 120.6,50.4 120.6,42 C120.6,20.8 106.6,3.6 89.4,3.6 L89.4,3.6 C87.4,3.6 77.1,3.4 76.7,3.4 C75.9,3.4 75.2,2.7 75.2,1.9 C75.2,1.1 75.9,0.4 76.7,0.4 C76.8,0.4 87.4,0.6 89.4,0.6 L89.4,0.6 C108.2,0.6 123.5,19.2 123.6,42 C123.6,50.9 121.2,59.8 117.1,66.4 C116.8,66.9 116.3,67.1 115.8,67.1 L115.8,67.1 Z" id="Shape" fill="#2E4D68"/>
                        <g transform="translate(83.000000, 8.000000)" id="Shape" fill="#2E4D68">
                            <path d="M25.9,3.4 L25.9,3.4 L13.2,3.3 C12.4,3.3 11.7,2.6 11.7,1.8 C11.7,1 12.4,0.3 13.2,0.3 L13.2,0.3 L25.9,0.4 C26.7,0.4 27.4,1.1 27.4,1.9 C27.4,2.8 26.7,3.4 25.9,3.4 L25.9,3.4 Z"/>
                            <path d="M33.9,13.8 L21.9,13.8 C21.1,13.8 20.4,13.1 20.4,12.3 C20.4,11.5 21.1,10.8 21.9,10.8 L33.9,10.8 C34.7,10.8 35.4,11.5 35.4,12.3 C35.4,13.1 34.7,13.8 33.9,13.8 L33.9,13.8 Z"/>
                            <path d="M38.6,28.4 C38.6,28.4 38.5,28.4 38.6,28.4 L27,28 C26.2,28 25.5,27.3 25.5,26.5 C25.5,25.7 26.2,25 27,25 L38.5,25.3 C39.3,25.3 40,26 40,26.8 C40.1,27.7 39.4,28.4 38.6,28.4 L38.6,28.4 Z"/>
                            <path d="M38.1,45.2 L26.5,45.2 C25.7,45.2 25,44.5 25,43.7 C25,42.9 25.7,42.2 26.5,42.2 L38.1,42.2 C38.9,42.2 39.6,42.9 39.6,43.7 C39.6,44.5 39,45.2 38.1,45.2 L38.1,45.2 Z"/>
                            <path d="M31.5,59.1 L31.5,59.1 L21.8,58.6 C21,58.6 20.3,57.9 20.4,57 C20.4,56.2 21.1,55.5 22,55.6 L31.7,56.1 C32.5,56.1 33.2,56.8 33.1,57.7 C33,58.5 32.3,59.1 31.5,59.1 L31.5,59.1 Z"/>
                            <path d="M12.8,67.8 C12,67.8 11.3,67.2 11.3,66.3 C11.3,65.5 11.9,64.8 12.8,64.8 L21.8,64.6 C22.6,64.6 23.3,65.2 23.3,66.1 C23.3,66.9 22.7,67.6 21.8,67.6 L12.8,67.8 L12.8,67.8 L12.8,67.8 Z"/>
                            <path d="M14.7,75.1 L2.1,75.1 C1.3,75.1 0.6,74.4 0.6,73.6 C0.6,72.8 1.3,72.1 2.1,72.1 L14.7,72.1 C15.5,72.1 16.2,72.8 16.2,73.6 C16.2,74.4 15.5,75.1 14.7,75.1 L14.7,75.1 Z"/>
                        </g>
                        <g transform="translate(0.000000, 58.000000)" id="Shape">
                            <path d="M81,47.3 C80,47.3 79,47.1 78.1,46.8 L55.7,38.9 L55.7,38.9 C55.7,38.9 50.2,37.3 45.7,37.3 C43.5,37.3 34.5,38.2 34.4,38.2 C33.6,38.3 32.8,37.7 32.8,36.9 C32.7,36.1 33.3,35.3 34.1,35.3 C34.5,35.3 43.4,34.4 45.7,34.4 C50.6,34.4 56.4,36.1 56.6,36.2 L79.1,44.1 C80.6,44.7 82.1,44.5 83.4,43.8 L83.5,43.8 L98.1,36.6 L104.8,32.3 L117,15.2 C119.7,11.4 119.3,10.4 119.3,10.3 C119.3,10.2 119,10.1 118.5,10 L118.4,10 C115.5,9.4 113.6,10 112.1,11.8 L112,11.9 L98,25.5 C97.8,25.7 97.6,25.8 97.4,25.9 L80.2,31.4 C79.8,31.5 79.4,31.5 79,31.3 L63.9,22.5 C63.2,22.1 62.9,21.2 63.4,20.4 C63.8,19.7 64.7,19.4 65.5,19.9 L80,28.4 L96.3,23.2 L109.9,10 C112.1,7.3 115.1,6.4 119.1,7.2 C121.1,7.5 121.9,8.5 122.2,9.2 C123,11 122.2,13.4 119.6,17 L107.3,34 C107.2,34.2 107.1,34.3 106.9,34.4 L99.9,38.9 L99.8,39 L85,46.2 C83.8,46.9 82.4,47.3 81,47.3 L81,47.3 Z" fill="#2E4D68"/>
                            <path d="M80.7,26.8 C79.8,26.8 78.8,26.6 78,26.3 L59.5,21.2 C58.7,21 58.2,20.2 58.4,19.4 C58.6,18.6 59.4,18.1 60.2,18.3 L78.8,23.4 L78.9,23.4 C79.5,23.6 80.1,23.7 80.6,23.7 C82.6,23.7 84.4,22.5 85.1,20.6 C85.6,19.4 85.5,18.1 85,16.9 C84.5,15.7 83.5,14.8 82.3,14.3 L54.1,3.5 C53.3,3.2 52.5,3.1 51.7,3.2 C42.9,4.9 35.9,9.5 35.8,9.5 C35.1,10 34.2,9.8 33.7,9.1 C33.2,8.4 33.4,7.5 34.1,7 C34.4,6.8 41.7,2.1 51.1,0.2 C52.4,-0.1 53.8,0.1 55.1,0.6 L83.4,11.5 C85.4,12.3 86.9,13.7 87.7,15.6 C88.5,17.5 88.6,19.6 87.8,21.6 C86.9,24.8 83.9,26.8 80.7,26.8 L80.7,26.8 Z" fill="#2E4D68"/>
                            <g transform="translate(0.000000, 3.000000)">
                                <path d="M36.5,39.9 L6.3,39.9 C1.8,36.9 -1.1,9.1 6.3,1.7 C4.4,1.7 36.5,1.7 36.5,1.7 C31.4,6.1 32.3,34 36.5,39.9 L36.5,39.9 Z" fill="#FFFFFF"/>
                                <path d="M36.5,41.4 L36.5,41.4 L6.3,41.4 C6,41.4 5.7,41.3 5.5,41.2 C2.1,39 0.9,29.3 0.6,26.4 C-0.3,17.4 0.4,6.1 4.9,1.1 C5.2,0.6 5.7,0.3 6.3,0.3 L6.3,0.3 L36.5,0.3 C37.1,0.3 37.7,0.7 37.9,1.3 C38.1,1.9 37.9,2.6 37.5,3 C33.4,6.5 33.5,32.8 37.6,39 C37.9,39.3 38,39.6 38,40 C38,40.7 37.4,41.4 36.5,41.4 L36.5,41.4 Z M6.9,38.4 L34.1,38.4 C32.3,33.8 31.6,26.2 31.5,20.3 C31.4,16.4 31.6,8 33.7,3.3 L7,3.3 C3.5,7.5 2.8,17.6 3.6,26.1 C4.3,33.4 5.9,37.3 6.9,38.4 L6.9,38.4 Z" fill="#2E4D68"/>
                            </g>
                            <g transform="translate(15.000000, 9.000000)">
                                <path d="M13,7.3 C13,10.3 10.6,12.7 7.6,12.7 C4.6,12.7 2.3,10.3 2.3,7.3 C2.3,4.3 4.7,1.9 7.6,1.9 C10.6,2 13,4.4 13,7.3" fill="#FFFFFF"/>
                                <path d="M7.7,14.2 C3.9,14.2 0.9,11.1 0.9,7.3 C0.9,3.5 4,0.4 7.7,0.4 C11.5,0.4 14.6,3.5 14.6,7.3 C14.5,11.1 11.4,14.2 7.7,14.2 L7.7,14.2 Z M7.7,3.5 C5.6,3.5 3.9,5.2 3.9,7.4 C3.9,9.5 5.6,11.3 7.7,11.3 C9.8,11.3 11.6,9.6 11.6,7.4 C11.5,5.2 9.8,3.5 7.7,3.5 L7.7,3.5 Z" fill="#2E4D68"/>
                            </g>
                        </g>
                    </g>
                </g>
            </g>
        </g>
    </g>
</svg>
